<svg width="97" height="96" viewBox="0 0 97 96" fill="none" xmlns="http://www.w3.org/2000/svg">
<g id="icons/other/ic-password">
<path id="color" d="M36.8238 29.3905V37.1505C36.8238 39.8031 34.6734 41.9535 32.0208 41.9535V41.9535C29.3682 41.9535 27.2178 39.8031 27.2178 37.1505V29.3905C27.2178 17.7136 36.6226 8.19195 48.2552 8.00268L48.6085 8C60.2856 8 69.8069 17.4049 69.9962 29.0373L69.999 29.3905V37.1505C69.999 39.8031 67.8487 41.9535 65.1961 41.9535V41.9535C62.5434 41.9535 60.3931 39.8031 60.3931 37.1505V29.3905C60.3931 22.9575 55.2117 17.7118 48.8031 17.6075L48.6085 17.6059C42.1103 17.6059 36.8238 22.8925 36.8238 29.3905Z" fill="#FFD666"/>
<g id="overlay" style="mix-blend-mode:overlay" filter="url(#filter0_i_292_12440)">
<path d="M36.8238 29.3905V41.9535H27.2178V29.3905C27.2178 17.7136 36.6226 8.19195 48.2552 8.00268L48.6085 8C60.2856 8 69.8069 17.4049 69.9962 29.0373L69.999 29.3905V41.9535H60.3931V29.3905C60.3931 22.9575 55.2117 17.7118 48.8031 17.6075L48.6085 17.6059C42.1103 17.6059 36.8238 22.8925 36.8238 29.3905Z" fill="white" fill-opacity="0.08"/>
</g>
<path id="color_2" fill-rule="evenodd" clip-rule="evenodd" d="M79.7169 68.1275C79.7169 79.1055 70.8177 88.0047 59.8399 88.0047H37.3771C26.3992 88.0047 17.5 79.1055 17.5 68.1275V47.8769C17.5 43.3057 21.2056 39.6001 25.7769 39.6001H48.6075L48.6085 39.6007L71.44 39.6001C76.0113 39.6001 79.7169 43.3057 79.7169 47.8769V68.1275ZM45.0109 66.8621C45.0109 68.8492 46.6218 70.4601 48.6089 70.4601H50.0008C51.2192 70.4601 52.2069 69.4724 52.2069 68.254C52.2069 67.3451 52.7769 66.5489 53.5652 66.0965C54.3915 65.6222 55.1536 65.029 55.8191 64.3292C57.7141 62.3285 58.6785 59.7142 58.5344 56.9604C58.2658 51.7841 53.9962 47.6487 48.8104 47.5434C48.789 47.543 48.7677 47.543 48.7463 47.543L48.612 47.5445C48.6112 47.5445 48.6104 47.5443 48.6097 47.5439C48.609 47.5436 48.6083 47.5434 48.6075 47.5434C43.9654 47.544 39.4555 51.1224 38.76 56.1016C38.689 56.6459 39.1269 57.1041 39.6759 57.1041H45.8796C45.8847 57.1041 45.8889 57.0999 45.8889 57.0948C45.9151 56.9074 45.9596 56.7267 46.0206 56.5545L46.0412 56.4982C46.0512 56.4718 46.0616 56.4456 46.0724 56.4196L46.0999 56.3557C46.164 56.2116 46.24 56.0745 46.3267 55.9454C46.4407 55.7756 46.5732 55.6198 46.7213 55.4806C46.8192 55.3886 46.9239 55.3037 47.0346 55.227L47.1047 55.1799L47.1652 55.1418L47.2087 55.1157L47.2571 55.088C47.2824 55.0739 47.3079 55.0601 47.3338 55.0467C47.3792 55.0231 47.4253 55.0009 47.4722 54.9798L47.559 54.9427C47.6037 54.9244 47.6491 54.9073 47.695 54.8914L47.7544 54.8715C47.8302 54.8471 47.9076 54.8259 47.9862 54.808C48.0258 54.799 48.0658 54.7908 48.106 54.7835L48.1634 54.7737L48.2212 54.7651L48.2882 54.7567C48.3304 54.7519 48.3729 54.748 48.4156 54.7451L48.4774 54.7416L48.5395 54.7394L48.6076 54.7386C48.6082 54.7386 48.6087 54.7391 48.6087 54.7397C48.6087 54.7404 48.6092 54.7409 48.6098 54.7409L48.6665 54.7392C50.072 54.7681 51.2762 55.929 51.3481 57.3347C51.3865 58.0973 51.1226 58.8217 50.5997 59.3736L50.5514 59.4228L50.4918 59.4805C49.9961 59.9469 49.3633 60.2083 48.6845 60.2264L48.6095 60.2274L47.9332 60.2272C46.3192 60.2272 45.0109 61.5356 45.0109 63.1496V66.8621ZM48.6087 72.9748C48.6087 72.975 48.6088 72.975 48.6087 72.9748C46.651 72.9749 45.0635 74.5615 45.0635 76.519C45.0635 78.4763 46.6503 80.0633 48.6078 80.0634C48.6079 80.0633 48.6078 80.0632 48.6078 80.0634L48.6089 80.0632L48.6724 80.0626C50.6001 80.0283 52.1521 78.4549 52.1521 76.5188C52.1521 74.5617 50.5657 72.9753 48.6087 72.9748Z" fill="#00A76F"/>
<g id="overlay_2" style="mix-blend-mode:overlay" filter="url(#filter1_i_292_12440)">
<path fill-rule="evenodd" clip-rule="evenodd" d="M79.7169 68.1275C79.7169 79.1055 70.8177 88.0047 59.8399 88.0047H37.3771C26.3992 88.0047 17.5 79.1055 17.5 68.1275V47.8769C17.5 43.3057 21.2056 39.6001 25.7769 39.6001H48.6075L48.6085 39.6007L71.44 39.6001C76.0113 39.6001 79.7169 43.3057 79.7169 47.8769V68.1275ZM45.0109 66.8621C45.0109 68.8492 46.6218 70.4601 48.6089 70.4601H50.0008C51.2192 70.4601 52.2069 69.4724 52.2069 68.254C52.2069 67.3451 52.7769 66.5489 53.5652 66.0965C54.3915 65.6222 55.1536 65.029 55.8191 64.3292C57.7141 62.3285 58.6785 59.7142 58.5344 56.9604C58.2658 51.7841 53.9962 47.6487 48.8104 47.5434C48.789 47.543 48.7677 47.543 48.7463 47.543L48.612 47.5445C48.6112 47.5445 48.6104 47.5443 48.6097 47.5439C48.609 47.5436 48.6083 47.5434 48.6075 47.5434C43.9654 47.544 39.4555 51.1224 38.76 56.1016C38.689 56.6459 39.1269 57.1041 39.6759 57.1041H45.8796C45.8847 57.1041 45.8889 57.0999 45.8889 57.0948C45.9151 56.9074 45.9596 56.7267 46.0206 56.5545L46.0412 56.4982C46.0512 56.4718 46.0616 56.4456 46.0724 56.4196L46.0999 56.3557C46.164 56.2116 46.24 56.0745 46.3267 55.9454C46.4407 55.7756 46.5732 55.6198 46.7213 55.4806C46.8192 55.3886 46.9239 55.3037 47.0346 55.227L47.1047 55.1799L47.1652 55.1418L47.2087 55.1157L47.2571 55.088C47.2824 55.0739 47.3079 55.0601 47.3338 55.0467C47.3792 55.0231 47.4253 55.0009 47.4722 54.9798L47.559 54.9427C47.6037 54.9244 47.6491 54.9073 47.695 54.8914L47.7544 54.8715C47.8302 54.8471 47.9076 54.8259 47.9862 54.808C48.0258 54.799 48.0658 54.7908 48.106 54.7835L48.1634 54.7737L48.2212 54.7651L48.2882 54.7567C48.3304 54.7519 48.3729 54.748 48.4156 54.7451L48.4774 54.7416L48.5395 54.7394L48.6076 54.7386C48.6082 54.7386 48.6087 54.7391 48.6087 54.7397C48.6087 54.7404 48.6092 54.7409 48.6098 54.7409L48.6665 54.7392C50.072 54.7681 51.2762 55.929 51.3481 57.3347C51.3865 58.0973 51.1226 58.8217 50.5997 59.3736L50.5514 59.4228L50.4918 59.4805C49.9961 59.9469 49.3633 60.2083 48.6845 60.2264L48.6095 60.2274L47.9332 60.2272C46.3192 60.2272 45.0109 61.5356 45.0109 63.1496V66.8621ZM48.6087 72.9748C48.6087 72.975 48.6088 72.975 48.6087 72.9748C46.651 72.9749 45.0635 74.5615 45.0635 76.519C45.0635 78.4763 46.6503 80.0633 48.6078 80.0634C48.6079 80.0633 48.6078 80.0632 48.6078 80.0634L48.6089 80.0632L48.6724 80.0626C50.6001 80.0283 52.1521 78.4549 52.1521 76.5188C52.1521 74.5617 50.5657 72.9753 48.6087 72.9748Z" fill="white" fill-opacity="0.08"/>
</g>
<path id="color_3" fill-rule="evenodd" clip-rule="evenodd" d="M48.6089 70.4455C46.6218 70.4455 45.0109 68.8346 45.0109 66.8475V63.1349C45.0109 61.521 46.3192 60.2126 47.9332 60.2126H48.6087C48.6088 60.2126 48.6089 60.2126 48.6091 60.2127V60.2127C48.6092 60.2128 48.6093 60.2128 48.6095 60.2128L48.6845 60.2118C49.3633 60.1937 49.9961 59.9322 50.4918 59.4659L50.5514 59.4082L50.5997 59.3589C51.1226 58.8071 51.3865 58.0827 51.3481 57.32C51.2762 55.9143 50.072 54.7534 48.6665 54.7245L48.6098 54.7262C48.6092 54.7262 48.6087 54.7257 48.6087 54.7251V54.7251C48.6087 54.7245 48.6082 54.724 48.6076 54.724L48.5395 54.7248L48.4774 54.7269L48.4156 54.7304C48.3729 54.7333 48.3304 54.7372 48.2882 54.742L48.2212 54.7505L48.1634 54.7591L48.106 54.7689C48.0658 54.7762 48.0258 54.7843 47.9862 54.7933C47.9076 54.8112 47.8302 54.8325 47.7544 54.8569L47.695 54.8767C47.6491 54.8927 47.6037 54.9098 47.559 54.928L47.4715 54.9655L47.4923 54.9562C47.4386 54.9798 47.3857 55.0051 47.3338 55.032C47.3079 55.0454 47.2824 55.0592 47.2571 55.0734L47.2087 55.1011L47.1652 55.1272L47.1047 55.1652L47.0346 55.2124C46.9239 55.2891 46.8192 55.3739 46.7213 55.466C46.5732 55.6052 46.4407 55.761 46.3267 55.9308C46.24 56.0598 46.164 56.197 46.0999 56.3411L46.0724 56.4049C46.0616 56.4309 46.0512 56.4571 46.0412 56.4835L46.0206 56.5398C45.9596 56.712 45.9151 56.8927 45.8889 57.0801V57.0801C45.8889 57.0853 45.8847 57.0894 45.8796 57.0894H39.6759C39.1269 57.0894 38.689 56.6313 38.76 56.0869V56.0869C39.4555 51.1078 43.9654 47.5293 48.6075 47.5287C48.6083 47.5287 48.609 47.5289 48.6097 47.5293V47.5293C48.6104 47.5297 48.6112 47.5299 48.612 47.5299L48.7463 47.5283C48.7677 47.5283 48.789 47.5283 48.8104 47.5287C53.9962 47.634 58.2658 51.7694 58.5344 56.9457C58.6785 59.6995 57.7141 62.3138 55.8191 64.3145C55.1536 65.0144 54.3915 65.6075 53.5652 66.0818C52.7769 66.5343 52.2069 67.3304 52.2069 68.2394V68.2394C52.2069 69.4578 51.2192 70.4455 50.0008 70.4455H48.6089ZM48.6087 72.9602C48.6087 72.9601 48.6088 72.96 48.6089 72.96C50.566 72.9605 52.1521 74.5471 52.1521 76.5042C52.1521 78.4402 50.6001 80.0136 48.6724 80.048L48.6089 80.0486C48.6088 80.0486 48.6087 80.0485 48.6087 80.0484V80.0484C48.6087 80.0482 48.6085 80.0482 48.6084 80.0483L48.608 80.0486C48.608 80.0487 48.6079 80.0487 48.6078 80.0487C46.6503 80.0487 45.0635 78.4616 45.0635 76.5043C45.0635 74.5469 46.6501 72.96 48.6078 72.96C48.6079 72.96 48.608 72.96 48.608 72.9601L48.6083 72.9603C48.6084 72.9605 48.6087 72.9604 48.6087 72.9602V72.9602Z" fill="white"/>
</g>
<defs>
<filter id="filter0_i_292_12440" x="25.2178" y="6" width="44.7812" height="35.9536" filterUnits="userSpaceOnUse" color-interpolation-filters="sRGB">
<feFlood flood-opacity="0" result="BackgroundImageFix"/>
<feBlend mode="normal" in="SourceGraphic" in2="BackgroundImageFix" result="shape"/>
<feColorMatrix in="SourceAlpha" type="matrix" values="0 0 0 0 0 0 0 0 0 0 0 0 0 0 0 0 0 0 127 0" result="hardAlpha"/>
<feOffset dx="-2" dy="-2"/>
<feGaussianBlur stdDeviation="2"/>
<feComposite in2="hardAlpha" operator="arithmetic" k2="-1" k3="1"/>
<feColorMatrix type="matrix" values="0 0 0 0 0 0 0 0 0 0 0 0 0 0 0 0 0 0 0.4 0"/>
<feBlend mode="normal" in2="shape" result="effect1_innerShadow_292_12440"/>
</filter>
<filter id="filter1_i_292_12440" x="15.5" y="37.6001" width="64.2169" height="50.4048" filterUnits="userSpaceOnUse" color-interpolation-filters="sRGB">
<feFlood flood-opacity="0" result="BackgroundImageFix"/>
<feBlend mode="normal" in="SourceGraphic" in2="BackgroundImageFix" result="shape"/>
<feColorMatrix in="SourceAlpha" type="matrix" values="0 0 0 0 0 0 0 0 0 0 0 0 0 0 0 0 0 0 127 0" result="hardAlpha"/>
<feOffset dx="-2" dy="-2"/>
<feGaussianBlur stdDeviation="2"/>
<feComposite in2="hardAlpha" operator="arithmetic" k2="-1" k3="1"/>
<feColorMatrix type="matrix" values="0 0 0 0 0 0 0 0 0 0 0 0 0 0 0 0 0 0 0.24 0"/>
<feBlend mode="normal" in2="shape" result="effect1_innerShadow_292_12440"/>
</filter>
</defs>
</svg>
