<svg width="20" height="20" viewBox="0 0 20 20" fill="none" xmlns="http://www.w3.org/2000/svg">
<g id="icons/duotone/ic-settings">
<path id="secondary-shape" opacity="0.32" fill-rule="evenodd" clip-rule="evenodd" d="M11.8994 1.79317C11.5911 1.6665 11.1994 1.6665 10.4169 1.6665C9.63443 1.6665 9.24276 1.6665 8.93443 1.79317C8.52397 1.96168 8.19725 2.28631 8.0261 2.69567C7.94776 2.8815 7.91776 3.099 7.90526 3.41484C7.89971 3.64367 7.83587 3.86731 7.7198 4.0646C7.60373 4.2619 7.43926 4.42632 7.24193 4.54234C7.04088 4.65409 6.81488 4.71329 6.58487 4.71446C6.35485 4.71562 6.12826 4.65871 5.9261 4.549C5.64443 4.40067 5.44026 4.319 5.2386 4.29234C4.79739 4.23441 4.35116 4.353 3.99693 4.62234C3.73193 4.824 3.5361 5.16067 3.14526 5.83317C2.7536 6.50567 2.5586 6.8415 2.51443 7.17067C2.4561 7.609 2.5761 8.05234 2.84776 8.40317C2.9711 8.56317 3.14526 8.69734 3.41443 8.86567C3.81193 9.11317 4.06693 9.53484 4.06693 9.99984C4.06693 10.4648 3.81193 10.8865 3.41526 11.1332C3.14526 11.3023 2.9711 11.4365 2.84693 11.5965C2.71283 11.7698 2.6144 11.9679 2.55733 12.1795C2.50026 12.391 2.48568 12.6118 2.51443 12.829C2.5586 13.1573 2.7536 13.494 3.14526 14.1665L3.14994 14.1745C3.53849 14.8417 3.73299 15.1756 3.99693 15.3773C4.35026 15.6465 4.79693 15.7648 5.2386 15.7073C5.44026 15.6807 5.64443 15.599 5.9261 15.4507C6.12837 15.3408 6.35511 15.2838 6.58529 15.285C6.81546 15.2862 7.04161 15.3454 7.24276 15.4573C7.64776 15.6907 7.88776 16.1198 7.90526 16.5848C7.91776 16.9015 7.94776 17.1182 8.0261 17.304C8.1961 17.7123 8.52276 18.0373 8.93443 18.2065C9.24276 18.3332 9.63443 18.3332 10.4169 18.3332C11.1994 18.3332 11.5911 18.3332 11.8994 18.2065C12.3099 18.038 12.6366 17.7134 12.8078 17.304C12.8861 17.1182 12.9161 16.9015 12.9286 16.5848C12.9453 16.1198 13.1861 15.6898 13.5919 15.4573C13.793 15.3456 14.019 15.2864 14.249 15.2852C14.479 15.2841 14.7056 15.341 14.9078 15.4507C15.1894 15.599 15.3936 15.6807 15.5953 15.7073C16.0369 15.7657 16.4836 15.6465 16.8369 15.3773C17.1019 15.1757 17.2978 14.839 17.6886 14.1665C18.0803 13.494 18.2753 13.1582 18.3194 12.829C18.3481 12.6117 18.3333 12.3909 18.2761 12.1794C18.2189 11.9678 18.1203 11.7697 17.9861 11.5965C17.8628 11.4365 17.6886 11.3023 17.4194 11.134C17.0219 10.8865 16.7669 10.4648 16.7669 9.99984C16.7669 9.53484 17.0219 9.11317 17.4186 8.8665C17.6886 8.69734 17.8628 8.56317 17.9869 8.40317C18.121 8.22989 18.2195 8.03174 18.2765 7.8202C18.3336 7.60865 18.3482 7.38789 18.3194 7.17067C18.2753 6.84234 18.0803 6.50567 17.6886 5.83317L17.6839 5.82513C17.2954 5.158 17.1009 4.82403 16.8369 4.62234C16.4827 4.353 16.0365 4.23441 15.5953 4.29234C15.3936 4.319 15.1894 4.40067 14.9078 4.549C14.7055 4.65886 14.4787 4.71585 14.2486 4.71469C14.0184 4.71352 13.7922 4.65424 13.5911 4.54234C13.3939 4.42622 13.2296 4.26175 13.1137 4.06446C12.9978 3.86718 12.9341 3.64359 12.9286 3.41484C12.9161 3.09817 12.8861 2.8815 12.8078 2.69567C12.7231 2.49295 12.5992 2.30891 12.4434 2.15405C12.2875 1.9992 12.1027 1.87657 11.8994 1.79317ZM12.9355 9.99984C12.9355 11.3807 11.8071 12.4998 10.4163 12.4998C9.02464 12.4998 7.89714 11.3807 7.89714 9.99984C7.89714 8.619 9.02464 7.49984 10.4163 7.49984C11.808 7.49984 12.9355 8.619 12.9355 9.99984Z" fill="#637381"/>
<path id="primary-shape" d="M12.9355 10C12.9355 11.3808 11.8071 12.5 10.4163 12.5C9.02464 12.5 7.89714 11.3808 7.89714 10C7.89714 8.61917 9.02464 7.5 10.4163 7.5C11.808 7.5 12.9355 8.61917 12.9355 10Z" fill="#637381"/>
</g>
</svg>
